<svg width="26" height="20" viewBox="0 0 26 20" fill="none" xmlns="http://www.w3.org/2000/svg">
<path d="M13 0C16.2838 0 19.0853 1.65333 21.1773 3.46333C23.2825 5.28167 24.8026 7.37167 25.5486 8.50167C25.8429 8.94532 26 9.46669 26 10C26 10.5333 25.8429 11.0547 25.5486 11.4983C24.8026 12.6283 23.2825 14.7183 21.1773 16.5367C19.0836 18.3467 16.2838 20 13 20C9.71616 20 6.9147 18.3467 4.82272 16.5367C2.71748 14.7167 1.19739 12.6267 0.451443 11.4967C0.157086 11.053 0 10.5316 0 9.99833C0 9.46502 0.157086 8.94366 0.451443 8.5C1.19739 7.37167 2.71748 5.28167 4.82272 3.46333C6.91635 1.65333 9.71616 0 13 0ZM2.52187 9.88667C2.49906 9.92001 2.48685 9.95953 2.48685 10C2.48685 10.0405 2.49906 10.08 2.52187 10.1133C3.20317 11.15 4.57904 13.03 6.44392 14.6417C8.31874 16.2633 10.5583 17.5 13 17.5C15.4417 17.5 17.6829 16.2633 19.5561 14.6417C21.4193 13.03 22.7952 11.1483 23.4781 10.1133C23.5009 10.08 23.5131 10.0405 23.5131 10C23.5131 9.95953 23.5009 9.92001 23.4781 9.88667C22.7952 8.85167 21.4193 6.97 19.5561 5.35833C17.6813 3.73667 15.4417 2.5 13 2.5C10.5583 2.5 8.31708 3.73667 6.44392 5.35833C4.5807 6.97 3.20483 8.85167 2.52187 9.88667ZM13 13.3333C12.5585 13.3434 12.1195 13.2646 11.7086 13.1017C11.2978 12.9388 10.9235 12.695 10.6077 12.3847C10.2919 12.0743 10.0409 11.7036 9.86954 11.2944C9.69816 10.8852 9.60982 10.4457 9.60971 10.0017C9.6096 9.55767 9.69772 9.11811 9.86889 8.70881C10.0401 8.29951 10.2908 7.92872 10.6065 7.61821C10.9222 7.30769 11.2964 7.06372 11.7071 6.9006C12.1178 6.73749 12.5568 6.65852 12.9983 6.66833C13.8646 6.68759 14.6889 7.04704 15.2948 7.66973C15.9008 8.29242 16.2402 9.12887 16.2404 10C16.2406 10.8712 15.9016 11.7078 15.296 12.3308C14.6904 12.9538 13.8662 13.3136 13 13.3333Z" fill="#777777"/>
</svg>
