<svg width="27" height="26" viewBox="0 0 27 26" fill="none" xmlns="http://www.w3.org/2000/svg">
<path d="M3.375 26C2.44688 26 1.65206 25.7573 0.990565 25.272C0.329065 24.7867 -0.00112213 24.2039 2.86503e-06 23.5238V11.1429C2.86503e-06 10.4619 0.330752 9.87876 0.992252 9.39343C1.65375 8.9081 2.448 8.66584 3.375 8.66667H5.0625V6.19048C5.0625 4.47778 5.88544 3.01765 7.53131 1.8101C9.17719 0.60254 11.1668 -0.000824551 13.5 8.45694e-07C15.8344 8.45694e-07 17.8245 0.603779 19.4704 1.81133C21.1162 3.01889 21.9386 4.4786 21.9375 6.19048V8.66667H23.625C24.5531 8.66667 25.3479 8.90933 26.0094 9.39467C26.6709 9.88 27.0011 10.4627 27 11.1429V23.5238C27 24.2048 26.6692 24.7879 26.0077 25.2732C25.3462 25.7586 24.552 26.0008 23.625 26H3.375ZM13.5 19.8095C14.4281 19.8095 15.2229 19.5669 15.8844 19.0815C16.5459 18.5962 16.8761 18.0135 16.875 17.3333C16.875 16.6524 16.5442 16.0692 15.8827 15.5839C15.2212 15.0986 14.427 14.8563 13.5 14.8571C12.5719 14.8571 11.7771 15.0998 11.1156 15.5851C10.4541 16.0705 10.1239 16.6532 10.125 17.3333C10.125 18.0143 10.4558 18.5974 11.1173 19.0828C11.7788 19.5681 12.573 19.8103 13.5 19.8095ZM8.4375 8.66667H18.5625V6.19048C18.5625 5.15873 18.0703 4.28175 17.0859 3.55952C16.1016 2.8373 14.9062 2.47619 13.5 2.47619C12.0938 2.47619 10.8984 2.8373 9.91406 3.55952C8.92969 4.28175 8.4375 5.15873 8.4375 6.19048V8.66667Z" fill="#544E4E"/>
</svg>
