<svg width="29" height="24" viewBox="0 0 29 24" fill="none" xmlns="http://www.w3.org/2000/svg">
<path d="M14.3333 0C16.2341 0 18.0569 0.632141 19.4009 1.75736C20.7449 2.88258 21.5 4.4087 21.5 6C21.5 7.5913 20.7449 9.11742 19.4009 10.2426C18.0569 11.3679 16.2341 12 14.3333 12C12.4326 12 10.6097 11.3679 9.26573 10.2426C7.92172 9.11742 7.16667 7.5913 7.16667 6C7.16667 4.4087 7.92172 2.88258 9.26573 1.75736C10.6097 0.632141 12.4326 0 14.3333 0ZM14.3333 15C22.2525 15 28.6667 17.685 28.6667 21V24H0V21C0 17.685 6.41417 15 14.3333 15Z" fill="#544E4E"/>
</svg>
